<svg height="464pt" viewBox="0 0 464 464" width="464pt" xmlns="http://www.w3.org/2000/svg"><path d="m304 388.265625c7.734375 2.4375 15.777344 3.734375 24 3.734375 44.113281 0 80-35.886719 80-80s-35.886719-80-80-80c-8.472656 0-16.703125 1.328125-24.609375 3.886719.363281 1.320312.609375 2.679687.609375 4.113281v12.832031c7.585938-3.078125 15.664062-4.832031 24-4.832031 35.289062 0 64 28.710938 64 64s-28.710938 64-64 64c-8.34375 0-16.414062-1.769531-24-4.847656zm0 0"/><path d="m104 336c0-8.824219 7.175781-16 16-16h48c8.824219 0 16 7.175781 16 16v1.871094l104-62.398438v-35.472656h-288v35.472656l104 62.398438zm0 0"/><path d="m288.007812 448h-288.007812v16h288.007812zm0 0"/><path d="m288.007812 432-.007812-137.871094-104 62.398438v11.472656c0 8.824219-7.175781 16-16 16h-48c-8.824219 0-16-7.175781-16-16v-11.472656l-104-62.398438v137.871094zm0 0"/><path d="m120 336h48.007812v32h-48.007812zm0 0"/><path d="m376 312c0-26.472656-21.527344-48-48-48-8.519531 0-16.710938 2.34375-24 6.566406v82.847656c7.289062 4.242188 15.464844 6.585938 24 6.585938 26.472656 0 48-21.527344 48-48zm0 0"/><path d="m40 200c0-13.230469 10.769531-24 24-24h160c6.878906 0 13.046875 2.953125 17.433594 7.609375l6.511718-6.511719.054688.039063v-113.136719h-224v160h16zm192-72h-128v-16h128zm-192-48h192v16h-192zm48 32v16h-16v-16zm-48 0h16v16h-16zm0 32h192v16h-192zm0 0"/><path d="m434.519531 346.503906 1.496094-4.625 27.984375-4.65625v-50.453125l-27.984375-4.65625-1.496094-4.625c-1.75-5.417969-4.054687-10.914062-6.832031-16.359375l-2.207031-4.328125 16.519531-23.136719-35.664062-35.671874-23.136719 16.519531-4.335938-2.207031c-5.457031-2.792969-10.953125-5.089844-16.351562-6.832032l-4.625-1.503906-4.664063-27.96875h-50.445312l-4.664063 27.976562-4.625 1.503907c-5.398437 1.75-10.894531 4.046875-16.351562 6.832031l-4.335938 2.207031-23.136719-16.519531-1.695312 1.695312c0 .105469.03125.199219.03125.304688v24h40c.488281 0 .953125.105469 1.425781.144531 12.183594-5.359375 25.132813-8.144531 38.574219-8.144531 52.9375 0 96 43.0625 96 96s-43.0625 96-96 96c-8.175781 0-16.199219-1.097656-24-3.113281v43.113281h49.222656l4.664063-27.976562 4.625-1.503907c5.398437-1.75 10.894531-4.046875 16.351562-6.832031l4.335938-2.207031 23.136719 16.519531 35.664062-35.671875-16.519531-23.136719 2.207031-4.328125c2.785156-5.4375 5.082031-10.941406 6.832031-16.359375zm5.480469-42.503906h16v16h-16zm-104-104h-16v-16h16zm0 240h-16v-16h16zm76.847656-31.832031-11.3125-11.3125 11.3125-11.3125 11.3125 11.3125zm0-169.703125-11.3125-11.3125 11.3125-11.3125 11.3125 11.3125zm0 0"/><path d="m264 80h72v16h-72v16h72v16h-72v60.566406l10.273438 7.335938c3.207031-1.503906 6.429687-2.839844 9.648437-4.039063l5.300781-31.863281h62.777344v-96h-64v-64h-160v48h136zm-104-48h-16v-16h16zm80 0h-64v-16h64zm16 0v-16h16v16zm0 0"/><path d="m304 11.3125v36.6875h36.6875zm0 0"/><path d="m64 192c-4.40625 0-8 3.585938-8 8v24h176v-24c0-4.414062-3.59375-8-8-8zm0 0"/></svg>