<svg height="464pt" viewBox="0 0 464 464" width="464pt" xmlns="http://www.w3.org/2000/svg"><path d="m432 0v152h-16v-120h-32v120h-16v-56h-32v56h-16v-152h-320v464h320v-264h16v-16h-16v-16h144v-168zm-200 16h40v96h-16v-80h-24zm24 112c8.824219 0 16 7.175781 16 16v128c0 8.824219-7.175781 16-16 16h-192c-8.824219 0-16-7.175781-16-16v-128c0-8.824219 7.175781-16 16-16h40v-16c0-8.824219 7.175781-16 16-16h80c8.824219 0 16 7.175781 16 16v16zm-240 208h16v16h-16zm224 112h-16v-16h16zm0-32h-224v-16h224zm32 32h-16v-16h16zm0-32h-16v-16h16zm0-32h-256v-16h256zm32 64h-16v-16h16zm0-32h-16v-16h16zm0-32h-16v-16h16zm0-32h-256v-16h240v-16h-272v-304h200v16h-184v272h272zm0 0"/><path d="m152 200h16v16h-16zm0 0"/><path d="m184 232h-48v-19.246094l-72-39.28125v98.527344h192.015625l-.015625-98.527344-72 39.28125zm0 0"/><path d="m120 112h80v16h-80zm0 0"/><path d="m64 155.246094 72 39.28125v-10.527344h48v10.527344l72-39.28125v-11.246094h-192zm0 0"/><path d="m352 184h80v16h-80zm0 0"/><path d="m448 184h16v16h-16zm0 0"/></svg>