<svg height="464pt" viewBox="0 0 464 464" width="464pt" xmlns="http://www.w3.org/2000/svg"><path d="m128 312h16v16h-16zm0 0"/><path d="m96 312h16v16h-16zm0 0"/><path d="m128 344h16v16h-16zm0 0"/><path d="m96 344h16v16h-16zm0 0"/><path d="m64 312h16v16h-16zm0 0"/><path d="m160 59.71875c-7.71875-2.429688-15.742188-3.71875-24-3.71875-44.113281 0-80 35.886719-80 80s35.886719 80 80 80c8.222656 0 16.265625-1.296875 24-3.734375v-17.113281c-7.585938 3.078125-15.65625 4.847656-24 4.847656-35.289062 0-64-28.710938-64-64s28.710938-64 64-64c8.328125 0 16.414062 1.753906 24 4.832031zm0 0"/><path d="m88 136c0 26.472656 21.527344 48 48 48 8.535156 0 16.710938-2.34375 24-6.574219v-82.859375c-7.289062-4.230468-15.480469-6.566406-24-6.566406-26.472656 0-48 21.527344-48 48zm0 0"/><path d="m0 432c0 17.648438 14.351562 32 32 32h32v-64h-32c-17.648438 0-32 14.351562-32 32zm0 0"/><path d="m29.480469 170.511719c1.75 5.417969 4.054687 10.921875 6.832031 16.34375l2.214844 4.335937-16.527344 23.144532 35.664062 35.664062 23.144532-16.527344 4.335937 2.214844c5.429688 2.777344 10.925781 5.082031 16.34375 6.832031l4.625 1.496094 4.664063 27.984375h49.222656v-43.113281c-7.800781 2.015625-15.824219 3.113281-24 3.113281-52.9375 0-96-43.0625-96-96s43.0625-96 96-96c13.304688 0 26.128906 2.742188 38.207031 8h66.121094l-26-26-23.144531 16.527344-4.335938-2.214844c-5.433594-2.777344-10.925781-5.082031-16.34375-6.832031l-4.625-1.496094-4.65625-27.984375h-50.445312l-4.664063 27.984375-4.625 1.496094c-5.417969 1.75-10.921875 4.054687-16.34375 6.832031l-4.335937 2.214844-23.144532-16.527344-35.664062 35.664062 16.527344 23.144532-2.214844 4.335937c-2.777344 5.429688-5.082031 10.925781-6.832031 16.34375l-1.496094 4.625-27.984375 4.664063v50.445312l27.984375 4.664063zm98.519531 77.488281h16v16h-16zm0-240h16v16h-16zm-76.847656 31.832031 11.3125 11.3125-11.3125 11.3125-11.320313-11.304687zm0 169.703125 11.3125 11.3125-11.3125 11.3125-11.3125-11.3125zm-27.152344-65.535156h-16v-16h16zm0 0"/><path d="m80 400h16v64h-16zm0 0"/><path d="m176 64v320c0 8.824219-7.175781 16-16 16h-48v24h88v16h-88v24h192v-24h-88v-16h88v-24h-112v-16h122.296875l76.800781 48-51.203125 32h124.105469v-400zm16 32h128v16h-128zm0 32h128v16h-128zm0 32h128v16h-128zm224 256h-16v-16h16zm32 32h-16v-16h16zm0-32h-16v-16h16zm0-32h-96v-16h96zm0-32h-256v-16h256zm0-32h-256v-16h256zm0-32h-256v-16h256zm0-32h-256v-16h256zm-96-32v-16h16v16zm32 0v-16h16v16zm32 0v-16h16v16zm32-32h-112v-112h112zm0 0"/><path d="m352 96h80v80h-80zm0 0"/><path d="m320 406.433594v51.132812l40.902344-25.566406zm0 0"/></svg>