<svg height="464pt" viewBox="0 0 464 464" width="464pt" xmlns="http://www.w3.org/2000/svg"><path d="m279.945312 256 5.335938-48h-106.5625l5.335938 48zm-79.945312-32h64v16h-64zm0 0"/><path d="m128 136c0-57.34375 46.65625-104 104-104s104 46.65625 104 104v40h32v-40c0-74.992188-61.007812-136-136-136s-136 61.007812-136 136v40h32zm0 0"/><path d="m336 192h48v32h-48zm0 0"/><path d="m462.648438 394.792969-45.0625-202.792969h-17.585938v32c0 8.824219-7.175781 16-16 16h-6.863281l15.863281 118.945312-15.855469 2.117188-16.144531-121.0625h-25c-8.824219 0-16-7.175781-16-16v-32h-16.832031l-30.222657 272h117.925782l-11.589844-86.945312 15.855469-2.117188 11.871093 89.0625h.121094c31.359375 0 56.871094-25.511719 56.871094-56.878906 0-4.152344-.457031-8.304688-1.351562-12.328125zm0 0"/><path d="m80 192h48v32h-48zm0 0"/><path d="m185.832031 272 21.335938 192h49.664062l21.335938-192zm0 0"/><path d="m144 192v32c0 8.824219-7.175781 16-16 16h-25l-16.144531 121.054688-15.855469-2.117188 15.863281-118.9375h-6.863281c-8.824219 0-16-7.175781-16-16v-32h-17.585938l-45.054687 202.785156c-.902344 4.03125-1.359375 8.183594-1.359375 12.335938 0 31.367187 25.511719 56.878906 56.871094 56.878906h.121094l11.871093-89.054688 15.855469 2.117188-11.582031 86.9375h117.925781l-30.222656-272zm0 0"/></svg>