<svg height="464pt" viewBox="0 0 464 464" width="464pt" xmlns="http://www.w3.org/2000/svg"><path d="m32 416h16v16h-16zm0 0"/><path d="m32 448h16v16h-16zm0 0"/><path d="m96 384h16v16h-16zm0 0"/><path d="m96 416h16v48h-16zm0 0"/><path d="m416 416h16v16h-16zm0 0"/><path d="m416 448h16v16h-16zm0 0"/><path d="m352 384h16v16h-16zm0 0"/><path d="m352 416h16v48h-16zm0 0"/><path d="m271.648438 225.96875c-1.585938-1.273438-3.570313-1.96875-5.601563-1.96875h-1.078125c-4.945312 0-8.96875 4.023438-8.96875 8.96875 0 2.359375.953125 4.671875 2.625 6.34375l21.375 21.375v38.625l-9.375 9.375c-9.433594 9.433594-14.625 21.976562-14.625 35.3125h-16c0-14.664062 4.816406-28.558594 13.59375-40h-29.59375v40h-16v-40h-16v40h-16v-40h-16v58.664062c0 1.71875.566406 3.425782 1.601562 4.800782l17.589844 23.480468c3.097656 4.117188 4.808594 9.230469 4.808594 14.398438v10.65625h96v-10.664062c0-5.167969 1.710938-10.28125 4.808594-14.40625l17.589844-23.464844c1.035156-1.386719 1.601562-3.089844 1.601562-4.808594v-106.96875c0-2.441406-1.097656-4.71875-3.007812-6.246094zm0 0"/><path d="m112 239.601562c-2.664062.238282-5.328125.398438-8 .398438-48.519531 0-88-39.480469-88-88s39.480469-88 88-88c2.671875 0 5.335938.160156 8 .398438v-16.398438h-112v288h32v64h16v-64h16v128h16v-128h16v32h16v-32h32v-32h-32zm-96 32.398438h80v16h-80zm0 32h80v16h-80zm0 0"/><path d="m407.878906 205.625c-1.246094-25.359375-22.214844-45.625-47.878906-45.625-2.695312 0-5.359375.289062-8 .734375v62.792969c2.65625.296875 5.328125.480468 8 .480468 18.390625-.007812 35.144531-7 47.878906-18.382812zm0 0"/><path d="m112 80.480469c-2.65625-.296875-5.328125-.480469-8-.480469-39.703125 0-72 32.296875-72 72 0 13.792969 3.96875 26.648438 10.71875 37.617188 5.585938-18.5625 19.371094-33.578126 37.128906-40.847657-4.824218-5.609375-7.847656-12.808593-7.847656-20.769531 0-17.648438 14.351562-32 32-32 2.734375 0 5.398438.464844 8 1.144531zm0 0"/><path d="m56.121094 205.625c12.734375 11.382812 29.488281 18.375 47.878906 18.375 2.671875 0 5.34375-.183594 8-.480469v-62.792969c-2.640625-.4375-5.304688-.726562-8-.726562-25.664062 0-46.632812 20.265625-47.878906 45.625zm0 0"/><path d="m232 112c-25.664062 0-46.632812 20.265625-47.878906 45.625 12.734375 11.382812 29.488281 18.375 47.878906 18.375s35.144531-6.992188 47.878906-18.375c-1.246094-25.359375-22.214844-45.625-47.878906-45.625zm0 0"/><path d="m168 432h128v32h-128zm0 0"/><path d="m232 32c-39.703125 0-72 32.296875-72 72 0 13.792969 3.96875 26.648438 10.71875 37.617188 5.585938-18.5625 19.371094-33.578126 37.128906-40.847657-4.824218-5.609375-7.847656-12.808593-7.847656-20.769531 0-17.648438 14.351562-32 32-32s32 14.351562 32 32c0 7.960938-3.023438 15.160156-7.855469 20.769531 17.765625 7.269531 31.550781 22.285157 37.128907 40.847657 6.757812-10.96875 10.726562-23.824219 10.726562-37.617188 0-39.703125-32.296875-72-72-72zm0 0"/><path d="m248 80c0 8.835938-7.164062 16-16 16s-16-7.164062-16-16 7.164062-16 16-16 16 7.164062 16 16zm0 0"/><path d="m376 128c0-8.824219-7.175781-16-16-16-2.839844 0-5.585938.777344-8 2.167969v27.65625c2.414062 1.398437 5.160156 2.175781 8 2.175781 8.824219 0 16-7.175781 16-16zm0 0"/><path d="m464 48h-112v16.398438c2.664062-.238282 5.328125-.398438 8-.398438 48.519531 0 88 39.480469 88 88s-39.480469 88-88 88c-2.671875 0-5.335938-.160156-8-.398438v64.398438h-32v32h32v32h16v-32h16v128h16v-128h16v64h16v-64h32zm-16 272h-80v-16h80zm0-32h-80v-16h80zm0 0"/><path d="m392 128c0 7.960938-3.023438 15.160156-7.855469 20.769531 17.765625 7.269531 31.550781 22.285157 37.128907 40.847657 6.757812-10.96875 10.726562-23.824219 10.726562-37.617188 0-39.703125-32.296875-72-72-72-2.671875 0-5.34375.183594-8 .480469v16.664062c2.601562-.679687 5.265625-1.144531 8-1.144531 17.648438 0 32 14.351562 32 32zm0 0"/><path d="m320 288h16v-288h-208v288h136v-20.6875l-16.6875-16.6875c-4.648438-4.648438-7.3125-11.082031-7.3125-17.65625 0-13.769531 11.199219-24.96875 24.96875-24.96875h1.078125c5.648437 0 11.183594 1.945312 15.601563 5.472656l29.34375 23.480469c5.726562 4.574219 9.007812 11.40625 9.007812 18.734375zm-176-64h16v16h-16zm80 48h-80v-16h80zm0-32h-48v-16h48zm8-48c-48.519531 0-88-39.480469-88-88s39.480469-88 88-88 88 39.480469 88 88-39.480469 88-88 88zm0 0"/><path d="m112 114.167969c-2.414062-1.390625-5.160156-2.167969-8-2.167969-8.824219 0-16 7.175781-16 16s7.175781 16 16 16c2.839844 0 5.585938-.777344 8-2.167969zm0 0"/></svg>