<svg height="464pt" viewBox="0 0 464 464" width="464pt" xmlns="http://www.w3.org/2000/svg"><path d="m248 48c0 8.835938-7.164062 16-16 16s-16-7.164062-16-16 7.164062-16 16-16 16 7.164062 16 16zm0 0"/><path d="m336 224h16v176h-16zm0 0"/><path d="m112 224h16v176h-16zm0 0"/><path d="m112 416h240v16h-240zm0 0"/><path d="m200 288h64v80h56v-224h-66.527344l-2.625 4.808594c-3.757812 6.902344-10.984375 11.191406-18.847656 11.191406s-15.089844-4.289062-18.847656-11.191406l-2.625-4.808594h-66.527344v224h56zm48-96h56v16h-56zm0 32h56v16h-56zm0 32h56v16h-56zm-88-64h56v16h-56zm0 32h56v16h-56zm0 32h56v16h-56zm0 0"/><path d="m144 384h176v16h-176zm0 0"/><path d="m216 304h32v64h-32zm0 0"/><path d="m48 384h16v48h-16zm0 0"/><path d="m384 368h48v64h16v-208h-80v208h16zm32-128h16v16h-16zm0 32h16v16h-16zm0 32h16v16h-16zm0 32h16v16h-16zm-32-96h16v16h-16zm0 32h16v16h-16zm0 32h16v16h-16zm0 32h16v16h-16zm0 0"/><path d="m32 368h48v64h16v-208h-80v208h16zm32-128h16v16h-16zm0 32h16v16h-16zm0 32h16v16h-16zm0 32h16v16h-16zm-32-96h16v16h-16zm0 32h16v16h-16zm0 32h16v16h-16zm0 32h16v16h-16zm0 0"/><path d="m227.191406 141.152344c1.921875 3.511718 7.6875 3.511718 9.609375 0l37.335938-68.441406c3.839843-7.03125 5.863281-14.984376 5.863281-22.992188v-1.71875c0-26.472656-21.527344-48-48-48s-48 21.527344-48 48v1.71875c0 8.007812 2.023438 15.960938 5.855469 22.992188zm4.808594-125.152344c17.648438 0 32 14.351562 32 32s-14.351562 32-32 32-32-14.351562-32-32 14.351562-32 32-32zm0 0"/><path d="m0 448h464v16h-464zm0 0"/><path d="m400 384h16v48h-16zm0 0"/></svg>