<svg height="464pt" viewBox="0 0 464 464" width="464pt" xmlns="http://www.w3.org/2000/svg"><path d="m88 240c-19.3125 0-35.472656 13.769531-39.191406 32h78.382812c-3.71875-18.230469-19.878906-32-39.191406-32zm0 0"/><path d="m356 320h12v-291.574219l-28.449219 61.628907c-3.910156 8.472656-12.460937 13.945312-21.78125 13.945312h-77.769531v24h-48v112h-16v-112h-48v-24h-77.769531c-9.320313 0-17.871094-5.472656-21.789063-13.945312l-28.441406-61.628907v435.574219h176v-208h16v208h40v-176h100zm-340 80h16v16h-16zm144 48h-144v-16h144zm-112-32v-16h16v16zm112 0h-80v-16h80zm0-32h-144v-16h144zm0-32h-144v-16h144zm0-32h-144v-16h144zm0-32h-144v-144h144zm192-32h-16v-16h16zm-144-112h144v16h-144zm0 32h144v16h-144zm0 48v-16h144v16zm80 32h-16v-16h16zm32 0h-16v-16h16zm0 0"/><path d="m104 208c0 8.835938-7.164062 16-16 16s-16-7.164062-16-16 7.164062-16 16-16 16 7.164062 16 16zm0 0"/><path d="m248 336v128h216v-128zm200 112h-64v-16h64zm0-32h-64v-16h64zm0 0"/><path d="m50.230469 88h77.769531v-24h112v24h77.769531c3.109375 0 5.949219-1.824219 7.253907-4.65625l38.472656-83.34375h-358.992188l38.472656 83.351562c1.304688 2.824219 4.152344 4.648438 7.253907 4.648438zm0 0"/><path d="m144 80h80v32h-80zm0 0"/><path d="m248 304v16h88l-12-16zm0 0"/><path d="m64.320312 229.328125c-5.121093-5.671875-8.320312-13.105469-8.320312-21.328125 0-17.648438 14.351562-32 32-32s32 14.351562 32 32c0 8.222656-3.199219 15.65625-8.320312 21.328125 16.746093 7.855469 28.953124 23.726563 31.679687 42.671875h.640625v-112h-112v112h.640625c2.726563-18.945312 14.933594-34.816406 31.679687-42.671875zm0 0"/></svg>