<svg height="464pt" viewBox="0 0 464 464" width="464pt" xmlns="http://www.w3.org/2000/svg"><path d="m160 304v-16c0-8.824219-7.175781-16-16-16s-16 7.175781-16 16v16c0 8.824219 7.175781 16 16 16s16-7.175781 16-16zm0 0"/><path d="m240 32h48v48h-48zm0 0"/><path d="m336 176h96v16h-96zm0 0"/><path d="m448 176h16v16h-16zm0 0"/><path d="m448 240h16v16h-16zm0 0"/><path d="m320 296h16v48h-16zm0 0"/><path d="m440 296h-88v48h88c13.230469 0 24-10.769531 24-24s-10.769531-24-24-24zm8 32h-16v-16h16zm0 0"/><path d="m144 336c-26.414062 0-47.910156 21.457031-47.992188 47.855469 13.382813 10.089843 29.976563 16.144531 47.992188 16.144531s34.609375-6.054688 47.992188-16.144531c-.082032-26.398438-21.578126-47.855469-47.992188-47.855469zm0 0"/><path d="m144 240c-44.113281 0-80 35.886719-80 80 0 18.886719 6.617188 36.238281 17.609375 49.945312 4.621094-20.539062 19.117187-37.351562 38.246094-45.175781-4.832031-5.609375-7.855469-12.808593-7.855469-20.769531v-16c0-17.648438 14.351562-32 32-32s32 14.351562 32 32v16c0 7.960938-3.023438 15.160156-7.855469 20.769531 19.128907 7.824219 33.625 24.636719 38.246094 45.175781 10.992187-13.707031 17.609375-31.058593 17.609375-49.945312 0-44.113281-35.886719-80-80-80zm0 0"/><path d="m144 208c-61.761719 0-112 50.238281-112 112s50.238281 112 112 112 112-50.238281 112-112-50.238281-112-112-112zm64 183.351562v.648438h-.710938c-16.921874 14.886719-39.03125 24-63.289062 24s-46.367188-9.113281-63.289062-24h-.710938v-.648438c-19.585938-17.589843-32-43.015624-32-71.351562 0-52.9375 43.0625-96 96-96s96 43.0625 96 96c0 28.335938-12.414062 53.761719-32 71.351562zm0 0"/><path d="m304 328v-16h-32.40625c.167969 2.65625.40625 5.296875.40625 8s-.238281 5.34375-.40625 8zm0 0"/><path d="m320 0h-320v464h320v-104h-16v-16h-34.335938c-11.273437 59.136719-63.296874 104-125.664062 104-70.574219 0-128-57.425781-128-128s57.425781-128 128-128c62.367188 0 114.390625 44.863281 125.664062 104h34.335938v-16h16v-24h112v-16h-112v-16h144v-16h-144zm-56 400h40v16h-40zm-32 32h72v16h-72zm-40-416h16v16h-16zm0 32h16v16h-16zm-176-32h160v16h-160zm0 32h160v16h-160zm0 32h192v16h-192zm192 80h-192v-16h192zm32 0h-16v-16h16zm32 0h-16v-16h16zm32 0h-16v-16h16zm0-32h-288v-16h288zm0-32h-80v-80h80zm0 0"/></svg>