<svg height="464pt" viewBox="-31 0 463 464" width="464pt" xmlns="http://www.w3.org/2000/svg"><path d="m210.253906 392 5.117188-20.472656-14.871094-9.910156-14.871094 9.910156 5.117188 20.472656zm0 0"/><path d="m210.085938 408h-19.171876l-4.207031 18.96875 29.792969 9.933594zm0 0"/><path d="m255.46875 323.152344-12.335938-2.464844-30.082031 30.074219 30.441407 20.285156zm0 0"/><path d="m232.5 308.6875v-10.289062c-10.023438 3.5625-20.769531 5.601562-32 5.601562s-21.976562-2.039062-32-5.601562v10.289062l32 32zm0 0"/><path d="m104.554688 104c-.039063-.625-.054688-1.257812-.054688-1.886719v-1.664062c0-10.351563 4.632812-20 12.71875-26.464844l8.671875 10.390625-3.398437-4.359375 4.984374 6.257813-1.585937-1.898438 1.519531 1.945312c-4.460937 3.566407-6.910156 8.664063-6.910156 14.128907v1.664062c0 9.863281 8.023438 17.886719 17.886719 17.886719 2.769531 0 5.527343-.65625 8-1.886719l60.226562-30.113281c10.480469-5.230469 22.191407-8 33.886719-8 17.527344 0 34.28125 8.375 44.800781 22.398438 7.222657 9.632812 11.199219 21.5625 11.199219 33.601562v8.808594c5.945312 1.214844 11.328125 3.855468 16 7.390625v-55.222657c0-15.746093-10.664062-29.402343-25.9375-33.222656l-3.566406-.898437-3.585938-7.160157c-17.183594-34.351562-51.71875-55.695312-90.132812-55.695312-55.578125 0-100.777344 45.207031-100.777344 100.777344v51.429687c4.679688-3.542969 10.070312-6.191406 16.03125-7.398437zm88.386718-57.734375v16c-17.792968 0-35.363281 4.664063-50.832031 13.476563l-7.921875-13.894532c17.871094-10.191406 38.183594-15.582031 58.753906-15.582031zm0 0"/><path d="m145.53125 323.152344 11.976562 47.894531 30.441407-20.285156-30.082031-30.074219zm0 0"/><path d="m296.5 206.527344c9.289062-3.3125 16-12.113282 16-22.527344s-6.710938-19.214844-16-22.527344zm0 0"/><path d="m183.210938 442.671875-4.734376 21.328125h44.046876l-1.976563-8.878906zm0 0"/><path d="m104.5 206.527344.023438-45.054688c-9.304688 3.304688-16.023438 12.101563-16.023438 22.527344 0 10.414062 6.710938 19.214844 16 22.527344zm0 0"/><path d="m360.339844 344.128906-89.175782-17.832031-17.664062 70.664063-24-16-4.785156 19.152343 14.199218 63.886719h73.585938v-80h16v80h64v-80.648438c0-19-13.519531-35.503906-32.160156-39.222656zm0 0"/><path d="m280.5 208v-72c0-8.601562-2.839844-17.128906-8-24-7.511719-10.015625-19.480469-16-32-16-9.222656 0-18.472656 2.183594-26.734375 6.3125l-60.21875 30.113281c-10.542969 5.269531-23.703125 4.285157-33.046875-1.546875v77.121094c0 44.113281 35.886719 80 80 80s80-35.886719 80-80zm-128-40c-4.414062 0-8-3.585938-8-8s3.585938-8 8-8 8 3.585938 8 8-3.585938 8-8 8zm48 88c-22.054688 0-40-17.945312-40-40h16c0 13.230469 10.769531 24 24 24s24-10.769531 24-24h16c0 22.054688-17.945312 40-40 40zm48-88c-4.414062 0-8-3.585938-8-8s3.585938-8 8-8 8 3.585938 8 8-3.585938 8-8 8zm0 0"/><path d="m147.492188 396.953125-17.664063-70.664063-89.167969 17.839844c-18.640625 3.71875-32.160156 20.222656-32.160156 39.222656v80.648438h64v-80h16v80h73.585938l14.199218-63.894531-4.785156-19.152344zm0 0"/><path d="m56.5 232h16v16h-16zm0 0"/><path d="m40.5 248h16v16h-16zm0 0"/><path d="m56.5 264h16v16h-16zm0 0"/><path d="m72.5 248h16v16h-16zm0 0"/><path d="m368.5 240h16v16h-16zm0 0"/><path d="m352.5 256h16v16h-16zm0 0"/><path d="m368.5 272h16v16h-16zm0 0"/><path d="m384.5 256h16v16h-16zm0 0"/><path d="m360.5 0h16v16h-16zm0 0"/><path d="m344.5 16h16v16h-16zm0 0"/><path d="m360.5 32h16v16h-16zm0 0"/><path d="m376.5 16h16v16h-16zm0 0"/><path d="m16.5 16h16v16h-16zm0 0"/><path d="m.5 32h16v16h-16zm0 0"/><path d="m16.5 48h16v16h-16zm0 0"/><path d="m32.5 32h16v16h-16zm0 0"/></svg>