<svg height="464pt" viewBox="0 0 464 464" width="464pt" xmlns="http://www.w3.org/2000/svg"><path d="m368 416h48v16h-48zm0 0"/><path d="m389.617188 463.886719c6.886718.570312 13.453124-1.527344 18.519531-6.125 2.953125-2.683594 5.046875-6.082031 6.359375-9.769531h-44.777344c3.265625 8.617187 10.839844 15.03125 19.898438 15.894531zm0 0"/><path d="m400 336c0 4.417969-3.582031 8-8 8s-8-3.582031-8-8 3.582031-8 8-8 8 3.582031 8 8zm0 0"/><path d="m440.007812 274.34375c-15.449218-13.832031-35.40625-20.199219-56.253906-17.878906-12.496094 1.382812-24.585937 6.246094-34.9375 14.0625l-12.816406 9.671875v-91.664063l10 2.585938c2.320312.597656 4.222656.878906 6 .878906 13.230469 0 24-10.769531 24-24v-8h8c13.230469 0 24-10.769531 24-24 0-5.398438-1.871094-10.574219-5.425781-14.96875l-4.0625-5.03125 4.0625-5.03125c3.554687-4.394531 5.425781-9.570312 5.425781-14.96875 0-10.910156-7.441406-20.441406-18.089844-23.160156l-6.222656-1.582032.335938-7.816406c-.023438-12.671875-10.792969-23.441406-24.023438-23.441406.097656.039062-.328125.089844-.761719.105469l-6.484375.269531-1.609375-6.285156c-3.679687-14.417969-20.402343-22.753906-34.511719-15.058594l-5.863281 3.191406-4.195312-5.191406c-4.628907-5.742188-11.40625-9.03125-18.574219-9.03125s-13.945312 3.289062-18.574219 9.03125l-4.195312 5.191406-5.863281-3.191406c-12.488282-6.808594-27.128907-1.320312-32.886719 10.601562l-3.183594 6.582032-6.839844-2.582032c-6.832031-2.578124-13.34375-2.074218-19.929687 1.519532-3.917969 2.160156-7.253906 5.503906-9.390625 9.433594-3.578125 6.558593-4.066407 13.054687-1.496094 19.855468l2.589844 6.839844-6.589844 3.183594c-8.417969 4.070312-13.640625 12.320312-13.640625 21.535156 0 13.230469 10.769531 24 24 24-.097656-.039062.328125-.089844.761719-.105469l6.484375-.269531 1.609375 6.285156c2.710937 10.648438 12.234375 18.089844 23.144531 18.089844-.097656-.039062.328125-.089844.761719-.105469l6.484375-.269531 1.609375 6.285156c2.710937 10.648438 12.234375 18.089844 23.144531 18.089844 6.414062 0 12.441406-2.496094 16.96875-7.03125l5.664062-5.65625 5.65625 5.65625c23.03125 23.03125 35.710938 53.65625 35.710938 86.222656l.039062 80.808594c0 25.585938 13.761719 49.457031 35.90625 62.289062 4.007813 2.328126 7.101563 5.75 9.199219 9.710938h18.855469v-41.472656c-9.289062-3.3125-16-12.113282-16-22.527344 0-13.230469 10.769531-24 24-24s24 10.769531 24 24c0 10.414062-6.710938 19.214844-16 22.527344v41.472656h18.863281c2.089844-3.960938 5.183594-7.382812 9.199219-9.710938 22.167969-12.855468 35.9375-36.730468 35.9375-62.289062 0-20.449219-8.742188-40.007812-23.992188-53.65625zm-192.855468-160.253906c-2.71875-10.648438-12.242188-18.089844-23.152344-18.089844.097656.039062-.328125.089844-.761719.105469l-.671875-15.984375c.28125-.066406.847656-.121094 1.433594-.121094 18.230469 0 34.136719 12.390625 38.65625 30.136719zm21.816406-47.074219 7.664062-14.046875c7.367188 4.015625 15.367188 4.015625 22.734376 0l5.863281-3.191406 4.195312 5.191406c4.628907 5.742188 11.40625 9.03125 18.574219 9.03125-.097656-.039062.328125-.089844.761719-.105469l.671875 15.984375c-.28125.066406-.847656.121094-1.433594.121094-9.9375 0-19.375-3.726562-26.6875-10.382812-10.578125 3.886718-22.097656 2.992187-32.34375-2.601563zm59.976562 94.792969-15.457031-4.160156c4.046875-15.039063 16.359375-26.167969 31.191407-28.96875 1.214843-6.390626 4.023437-12.414063 8.296874-17.710938l12.449219 10.0625c-3.554687 4.394531-5.425781 9.570312-5.425781 14.96875v8h-8c-10.761719 0-20.238281 7.320312-23.054688 17.808594zm103.054688 166.191406c0-22.054688-17.945312-40-40-40v-16c30.878906 0 56 25.128906 56 56zm0 0"/><path d="m256 184c-16.152344 0-30.472656-9.71875-36.671875-24.273438-14.199219-1.671874-26.398437-10.863281-32-24-19.863281-2.320312-35.328125-19.246093-35.328125-39.726562 0-13.105469 6.28125-25.015625 16.761719-32.449219-1.851563-9.039062-.410157-17.964843 4.316406-26.621093 3.632813-6.671876 9.082031-12.136719 15.753906-15.808594 8.695313-4.761719 17.65625-6.199219 26.734375-4.367188 2.503906-3.53125 5.546875-6.53125 8.9375-9.035156-15.824218-5.085938-32.304687-7.71875-49.257812-7.71875-29.269532 0-57.460938 8.808594-81.535156 25.472656-38.640626 26.742188-61.710938 70.765625-61.710938 117.765625v20.074219c0 5.09375-2.0625 10.070312-5.664062 13.664062l-25.367188 25.367188c-.617188.617188-.96875 1.472656-.96875 2.34375 0 1.824219 1.488281 3.3125 3.3125 3.3125 11.199219 0 20.816406 7.617188 23.375 18.511719l17.808594 75.65625c5.792968 24.640625 27.511718 41.832031 52.808594 41.832031 8.375 0 16.765624-1.976562 24.261718-5.726562l114.859375-57.433594 7.160157 14.3125-83.585938 41.792968v127.054688h16v-56h16v56h16v-136h16v136h16v-56h16v56h16v-66.351562c0-36.273438 8.167969-72.785157 23.609375-105.59375l8.359375-17.765626.03125.015626v-27.113282c0-25.894531-9.230469-50.382812-26.136719-69.6875-6.4375 4.230469-13.976562 6.496094-21.863281 6.496094zm-64 208h-16v-16h16zm0-32h-16v-16h16zm64 32h-16v-16h16zm0-32h-16v-16h16zm0 0"/></svg>