<svg height="464pt" viewBox="-56 0 464 464" width="464pt" xmlns="http://www.w3.org/2000/svg"><path d="m176 250.246094-11.878906 9.507812 8.160156 12.246094h7.4375l8.160156-12.246094zm0 0"/><path d="m174.777344 288-6.210938 37.257812 7.433594 7.429688 7.433594-7.429688-6.210938-37.257812zm0 0"/><path d="m163.777344 192h24.445312c9.152344 0 17.378906-5.089844 21.464844-13.265625l11.777344-23.550781c1.664062-3.320313 2.535156-7.03125 2.535156-10.734375v-16.449219h-25.367188c-14.183593 0-27.648437-4.6875-38.632812-13.320312-9.238281 7.265624-20.289062 11.535156-32 12.769531v16.992187c0 3.703125.871094 7.421875 2.535156 10.734375l11.777344 23.550781c4.085938 8.183594 12.320312 13.273438 21.464844 13.273438zm0 0"/><path d="m160 92.6875 5.65625 5.65625c8.808594 8.808594 20.519531 13.65625 32.976562 13.65625h25.367188v-6.113281c0-7.984375-4.441406-15.167969-11.574219-18.734375l-1.160156-.578125-10.007813-10.007813c-8.105468-8.101562-18.890624-12.566406-30.347656-12.566406-23.664062 0-42.910156 19.246094-42.910156 42.910156v4.570313c9.9375-1.410157 19.121094-5.921875 26.34375-13.136719zm0 0"/><path d="m200 206.207031c-3.753906 1.144531-7.703125 1.792969-11.777344 1.792969h-24.445312c-4.074219 0-8.023438-.648438-11.777344-1.792969v5.792969l24 18 24-18zm0 0"/><path d="m0 0v432h16v-416h320v384h16v-400zm0 0"/><path d="m219.3125 448h-219.3125v16h352v-48h-100.6875zm100.6875-16h16v16h-16zm-32 0h16v16h-16zm-32 0h16v16h-16zm0 0"/><path d="m320 400v-368h-288v400h180.6875l32-32zm-272-16v-125.296875c0-19.335937 13.816406-35.878906 32.839844-39.351563l55.160156-10.03125v-12.625c-3.175781-3.085937-5.9375-6.671874-8-10.808593l-11.777344-23.550781c-2.757812-5.519532-4.222656-11.710938-4.222656-17.886719v-37.527344c0-32.488281 26.425781-58.921875 58.910156-58.921875 15.738282 0 30.53125 6.128906 41.65625 17.257812l8.226563 8.222657c11.878906 6.496093 19.207031 18.785156 19.207031 32.40625v38.554687c0 6.175782-1.464844 12.367188-4.222656 17.886719l-11.777344 23.558594c-2.0625 4.128906-4.824219 7.714843-8 10.808593v12.625l55.152344 10.03125c19.03125 3.472657 32.847656 20.015626 32.847656 39.351563v125.296875zm0 0"/><path d="m268.289062 235.089844-36.914062-6.707032-9.726562 58.386719-21.222657-16.976562-8.019531 12.023437 8.152344 48.9375-24.558594 24.558594-24.566406-24.570312 8.152344-48.933594-8.019532-12.023438-21.222656 16.976563-9.726562-58.386719-36.914063 6.703125c-11.414063 2.089844-19.703125 12.027344-19.703125 23.625v109.296875h32v-104h16v104h128v-104h16v104h32v-109.296875c0-11.597656-8.289062-21.535156-19.710938-23.613281zm0 0"/><path d="m136.359375 225.519531 5.289063 31.710938 21.289062-17.03125-20.9375-15.703125zm0 0"/><path d="m215.640625 225.519531-5.640625-1.023437-20.9375 15.703125 21.289062 17.03125zm0 0"/></svg>