<svg height="464pt" viewBox="0 0 464 464" width="464pt" xmlns="http://www.w3.org/2000/svg"><path d="m48 88v16c0 13.230469 10.769531 24 24 24s24-10.769531 24-24v-16c0-13.230469-10.769531-24-24-24s-24 10.769531-24 24zm0 0"/><path d="m328 334.320312c-7.855469 1.078126-15.855469 1.679688-24 1.679688s-16.144531-.601562-24-1.679688v17.679688h-16v16h16v16h-16v16h16v64h48v-64h16v-16h-16v-16h16v-16h-16zm0 0"/><path d="m88 158.03125v-17.421875c-4.910156 2.160156-10.304688 3.390625-16 3.390625s-11.089844-1.230469-16-3.390625v17.421875l-50.191406 14.335938c-3.425782.984374-5.808594 4.144531-5.808594 7.703124v123.929688h18.902344l-2.902344-95.761719 16-.476562 7.761719 256.238281h24.238281v-184h16v184h24.238281l7.761719-256.238281 16 .476562-2.902344 95.761719h18.902344v-70.816406c-8.984375-19.566406-14.519531-41.03125-15.734375-63.640625zm0 0"/><path d="m304 152c17.648438 0 32-14.351562 32-32v-24c0-17.648438-14.351562-32-32-32s-32 14.351562-32 32v24c0 17.648438 14.351562 32 32 32zm0 0"/><path d="m384 259.761719v-49.027344c0-7.351563-4.984375-13.734375-12.121094-15.519531l-51.878906-12.96875v-17.046875c-5.015625 1.777343-10.382812 2.800781-16 2.800781s-10.984375-1.023438-16-2.800781v17.046875l-51.878906 12.976562c-7.136719 1.777344-12.121094 8.160156-12.121094 15.511719v49.027344c21.9375 17.621093 49.734375 28.238281 80 28.238281s58.0625-10.617188 80-28.238281zm0 0"/><path d="m464 160c0-88.222656-71.777344-160-160-160s-160 71.777344-160 160 71.777344 160 160 160 160-71.777344 160-160zm-304 0c0-35.175781 12.953125-69.113281 36.472656-95.550781l11.953125 10.628906c-20.914062 23.515625-32.425781 53.675781-32.425781 84.921875 0 32.335938 12.152344 61.824219 32 84.375v-33.640625c0-14.710937 9.96875-27.476563 24.238281-31.039063l39.761719-9.941406v-14.082031c-9.792969-8.792969-16-21.503906-16-35.679687v-24c0-26.472657 21.527344-48 48-48s48 21.527343 48 48v24c0 14.167968-6.207031 26.878906-16 35.679687v14.082031l39.761719 9.941406c14.269531 3.5625 24.238281 16.328126 24.238281 31.039063v33.640625c19.847656-22.550781 32-52.039062 32-84.375 0-70.574219-57.425781-128-128-128-31.246094 0-61.40625 11.511719-84.921875 32.425781l-10.628906-11.953125c26.4375-23.519531 60.375-36.472656 95.550781-36.472656 79.398438 0 144 64.601562 144 144s-64.601562 144-144 144-144-64.601562-144-144zm0 0"/><path d="m0 0h16v16h-16zm0 0"/><path d="m32 0h16v16h-16zm0 0"/><path d="m64 0h80v16h-80zm0 0"/><path d="m0 32h144v16h-144zm0 0"/><path d="m448 384h16v16h-16zm0 0"/><path d="m448 416h16v16h-16zm0 0"/><path d="m448 448h16v16h-16zm0 0"/><path d="m416 448h16v16h-16zm0 0"/><path d="m384 448h16v16h-16zm0 0"/><path d="m416 416h16v16h-16zm0 0"/></svg>