<svg height="464pt" viewBox="0 0 464 464" width="464pt" xmlns="http://www.w3.org/2000/svg"><path d="m270.550781 290.078125-4.878906-1.335937-20.335937 15.257812 15.113281 11.335938zm0 0"/><path d="m326.320312 305.289062-40.222656-10.976562-18.539062 46.34375-35.558594-26.65625-35.550781 26.664062-18.539063-46.34375-40.222656 10.976563c-10.414062 2.832031-17.6875 12.351563-17.6875 23.152344v23.550781h224v-23.550781c0-10.800781-7.273438-20.320313-17.679688-23.160157zm0 0"/><path d="m193.449219 290.078125 10.101562 25.257813 15.113281-11.335938-20.335937-15.257812zm0 0"/><path d="m176 203.160156c0 1.582032.464844 3.121094 1.34375 4.433594l24.558594 36.847656c1.488281 2.230469 3.976562 3.558594 6.65625 3.558594h46.875c2.679687 0 5.167968-1.328125 6.65625-3.558594l24.558594-36.839844c.886718-1.328124 1.351562-2.859374 1.351562-4.441406v-27.921875c-9.128906-1.574219-17.566406-5.742187-24.34375-12.277343-10.921875 8.453124-24.25 13.039062-38.289062 13.039062h-49.367188zm0 0"/><path d="m256 276v-12.070312c-.191406.007812-.367188.070312-.558594.070312h-46.882812c-.191406 0-.367188-.0625-.558594-.070312v12.070312l24 18zm0 0"/><path d="m136 232c0 19.0625 5.464844 37.175781 15.847656 52.839844l40.152344-10.953125v-16.621094c-1.246094-1.203125-2.425781-2.480469-3.40625-3.953125l-24.5625-36.839844c-2.640625-3.960937-4.03125-8.5625-4.03125-13.3125v-34.472656c-15.335938 17.375-24 39.617188-24 63.3125zm0 0"/><path d="m272 257.265625v16.621094l40.152344 10.953125c10.382812-15.664063 15.847656-33.777344 15.847656-52.839844 0-23.695312-8.664062-45.9375-24-63.3125v34.472656c0 4.761719-1.390625 9.359375-4.03125 13.320313l-24.5625 36.839843c-.980469 1.464844-2.160156 2.75-3.40625 3.945313zm0 0"/><path d="m269.472656 127.59375-1.792968-.601562-8.769532-8.769532c-9.175781-9.175781-21.367187-14.222656-34.34375-14.222656-26.773437 0-48.566406 21.792969-48.566406 48.566406v7.433594h49.367188c12.457031 0 24.167968-4.847656 32.976562-13.65625l5.65625-5.65625 10.34375 10.34375c3.839844 3.839844 8.550781 6.402344 13.65625 7.785156v-5.519531c0-11.679687-7.449219-22.007813-18.527344-25.703125zm0 0"/><path d="m336 40v80h24v18.265625l32.167969-18.265625h71.832031v-80zm40 64h-16v-16h16zm32 0h-16v-16h16zm32 0h-16v-16h16zm8-32h-96v-16h96zm0 0"/><path d="m400 232c0-30.054688-8.03125-59.214844-23.128906-84.921875l-32.871094 18.65625v-29.734375h-8c-8.824219 0-16-7.175781-16-16v-31.015625c-26.433594-16.304687-56.726562-24.984375-88-24.984375-92.640625 0-168 75.359375-168 168 0 40.441406 14.113281 78.390625 40 108.695312v-12.246093c0-17.992188 12.121094-33.855469 29.472656-38.59375l2.320313-.632813c-10.3125-17.246094-15.792969-36.75-15.792969-57.222656 0-33.472656 14.71875-64.503906 40.328125-85.871094 3.238281-32.59375 30.808594-58.128906 64.238281-58.128906 17.25 0 33.464844 6.71875 45.65625 18.910156l6.167969 6.167969c14.226563 5.472656 24.296875 17.96875 26.898437 32.714844 25.847657 21.367187 40.710938 52.558593 40.710938 86.207031 0 20.472656-5.480469 39.976562-15.792969 57.214844l2.320313.632812c17.351562 4.738282 29.472656 20.609375 29.472656 38.601563v12.246093c25.886719-30.304687 40-68.253906 40-108.695312zm0 0"/><path d="m232 48c30.96875 0 61.097656 7.734375 88 22.414062v-17.957031c-12.855469-6.296875-26.398438-11.296875-40.40625-14.722656l-4.691406-1.140625-9.148438-36.59375h-67.507812l-9.148438 36.601562-4.691406 1.152344c-19.886719 4.855469-38.773438 12.660156-56.132812 23.222656l-4.128907 2.511719-32.328125-19.410156-47.726562 47.738281 19.390625 32.328125-2.503907 4.128907c-10.550781 17.359374-18.367187 36.246093-23.222656 56.132812l-1.152344 4.691406-36.601562 9.148438v67.507812l36.601562 9.148438 1.152344 4.699218c4.511719 18.496094 13.207032 32.75 23.261719 49.253907l2.984375 4.90625v18.238281h28.542969c-28.855469-33.34375-44.542969-75.289062-44.542969-120 0-101.457031 82.542969-184 184-184zm-8-32h16v16h-16zm-139.078125 57.609375 11.308594 11.3125-11.308594 11.308594-11.3125-11.308594zm-52.921875 166.390625h-16v-16h16zm0 0"/><path d="m168 464h128v-96h-128zm32-72h64v16h-64zm0 32h64v16h-64zm0 0"/><path d="m426.257812 184.40625c-4.144531-16.972656-10.554687-33.199219-18.890624-48.40625h-10.96875l-5.613282 3.183594c16.453125 28.113281 25.214844 59.976562 25.214844 92.816406 0 44.710938-15.6875 86.65625-44.542969 120h28.542969v-18.238281l2.992188-4.90625c10.054687-16.503907 18.75-30.765625 23.265624-49.253907l1.148438-4.699218 36.59375-9.148438v-67.507812l-36.601562-9.148438zm5.742188 39.59375h16v16h-16zm0 0"/></svg>