<svg height="469pt" viewBox="-2 0 469 469.656" width="469pt" xmlns="http://www.w3.org/2000/svg"><path d="m262.351562 50.945312 39.632813-39.632812-11.3125-11.3125-37.542969 37.542969c4.144532 3.578125 7.335938 8.152343 9.222656 13.402343zm0 0"/><path d="m232.328125 93.65625c17.648437 0 32-14.351562 32-32 0-3.777344-.777344-7.34375-1.976563-10.710938l-30.023437 30.023438-21.65625-21.65625 11.3125-11.3125 10.34375 10.34375 20.800781-20.800781c-5.609375-4.847657-12.824218-7.886719-20.800781-7.886719-17.648437 0-32 14.351562-32 32s14.351563 32 32 32zm0 0"/><path d="m337.800781 53.65625h-58.191406c.4375 2.609375.71875 5.273438.71875 8 0 26.472656-21.527344 48-48 48s-48-21.527344-48-48c0-2.726562.28125-5.390625.71875-8h-58.191406l105.472656 85.6875zm0 0"/><path d="m352.328125 202.34375v-139.878906l-77.175781 62.703125zm0 0"/><path d="m109.015625 373.65625h-108.6875v24c0 13.230469 10.769531 24 24 24h416c13.230469 0 24-10.769531 24-24v-8h-339.3125zm-76.6875 32h-16v-16h16zm32 0h-16v-16h16zm32 0h-16v-16h16zm0 0"/><path d="m320.328125 437.65625h-176v16h-32v16h240v-16h-32zm0 0"/><path d="m464.328125 325.65625v-200c0-13.230469-10.769531-24-24-24h-72v128h-88v96h24v16h-40v-128h76.6875l-78.34375-78.34375-22.34375 18.152344v140.191406h-16v-140.191406l-22.34375-18.152344-78.34375 78.34375h76.6875v128h-40v-16h24v-96h-88v-112h16v84.6875l77.175781-77.175781-77.175781-62.703125v39.191406h-88c-13.230469 0-24 10.769531-24 24v200h64v-144h16v160h-80v16h115.3125l16 16h332.6875v-32h-80v-160h16v144zm-384-160h-16v-16h16zm0-32h-16v-16h16zm32 208h-16v-96h16zm32 0h-16v-16h16zm96 16h-16v-16h16zm0-32h-16v-16h16zm96 16h-16v-16h16zm32 0h-16v-96h16zm16-224h16v16h-16zm0 48v-16h16v16zm0 0"/></svg>