<svg height="464pt" viewBox="0 0 464 464.00118" width="464pt" xmlns="http://www.w3.org/2000/svg"><path d="m112 112v-32h32v-80h-144v80h72.304688zm-16-80h16v16h-16zm-48 16h-16v-16h16zm16-16h16v16h-16zm0 0"/><path d="m208 180 24 18 24-18v-12h-48zm0 0"/><path d="m222.5625 256-4.800781 24h28.480469l-4.800782-24zm0 0"/><path d="m240 88c0 4.417969-3.582031 8-8 8s-8-3.582031-8-8 3.582031-8 8-8 8 3.582031 8 8zm0 0"/><path d="m198 192.496094-4.34375.792968 4.304688 25.808594 19.71875-11.839844zm0 0"/><path d="m232 217.335938-14.824219 8.898437 4.59375 13.765625h20.464844l4.589844-13.765625zm0 0"/><path d="m408 296v-24c0-22.054688-17.945312-40-40-40s-40 17.945312-40 40v24c0 22.058594 17.945312 40 40 40s40-17.941406 40-40zm0 0"/><path d="m277.960938 244.90625-17.082032-10.25-4.613281 13.855469 6.296875 31.488281h33.4375v86.050781l40-12v-12.160156c-14.488281-10.136719-24-26.914063-24-45.890625v-24c0-22.054688 12.855469-41.117188 31.433594-50.246094-1.976563-9.375-9.394532-16.890625-19.144532-18.671875l-38.199218-6.945312zm0 0"/><path d="m352 349.640625v8.152344c1.984375 3.0625 7.496094 10.207031 16 10.207031s14.015625-7.144531 16-10.207031v-8.152344c-5.070312 1.519531-10.4375 2.359375-16 2.359375-5.558594 0-10.925781-.839844-16-2.359375zm0 0"/><path d="m270.34375 193.289062-4.34375-.792968-19.679688 14.761718 19.71875 11.839844zm0 0"/><path d="m174.898438 384.824219-51.515626-15.453125c-4.652343 6.046875-13.664062 14.628906-27.382812 14.628906s-22.726562-8.582031-27.382812-14.628906l-51.511719 15.453125c-10.234375 3.066406-17.105469 12.304687-17.105469 22.992187v56.183594h32v-56h16v56h96v-56h16v56h32v-56.183594c0-10.519531-7.03125-19.976562-17.101562-22.992187zm0 0"/><path d="m80 349.640625v8.152344c1.984375 3.0625 7.496094 10.207031 16 10.207031s14.015625-7.144531 16-10.207031v-8.152344c-5.070312 1.519531-10.4375 2.359375-16 2.359375-5.558594 0-10.925781-.839844-16-2.359375zm0 0"/><path d="m446.898438 384.824219-51.515626-15.453125c-4.652343 6.046875-13.664062 14.628906-27.382812 14.628906s-22.726562-8.582031-27.382812-14.628906l-51.511719 15.453125c-10.234375 3.066406-17.105469 12.304687-17.105469 22.992187v56.183594h32v-56h16v56h96v-56h16v56h32v-56.183594c0-10.519531-7.03125-19.976562-17.101562-22.992187zm0 0"/><path d="m280 296h-96v75.25c2.953125 1.277344 5.6875 2.863281 8.183594 4.75h79.632812c2.496094-1.886719 5.230469-3.472656 8.183594-4.75zm-16 64h-64v-16h64zm0-32h-64v-16h64zm0 0"/><path d="m136 296v-24c0-22.054688-17.945312-40-40-40s-40 17.945312-40 40v24c0 22.058594 17.945312 40 40 40s40-17.941406 40-40zm0 0"/><path d="m193.640625 132.898438c6.710937 4.230468 11.488281 11.191406 13.40625 19.101562h16.953125v-41.472656c-9.289062-3.308594-16-12.109375-16-22.527344 0-13.230469 10.769531-24 24-24 13.234375 0 24 10.769531 24 24 0 10.417969-6.710938 19.21875-16 22.527344v41.472656h16.929688c1.886718-8.023438 6.605468-14.808594 13.429687-19.101562 21.066406-13.28125 33.640625-36.050782 33.640625-60.898438 0-20.445312-8.742188-40.007812-23.992188-53.65625-15.457031-13.832031-35.414062-20.191406-56.246093-17.878906-32.144531 3.542968-58.65625 29.320312-63.058594 61.28125-3.925781 28.589844 8.699219 55.855468 32.9375 71.152344zm38.359375-116.898438c30.871094 0 56 25.128906 56 56h-16c0-22.054688-17.945312-40-40-40zm0 0"/><path d="m168 280h33.441406l6.296875-31.488281-4.617187-13.855469-17.082032 10.25-8.125-48.761719-38.210937 6.945313c-9.742187 1.785156-17.160156 9.296875-19.132813 18.671875 18.574219 9.121093 31.429688 28.183593 31.429688 50.238281v24c0 18.976562-9.511719 35.753906-24 45.890625v12.160156l40 12zm0 0"/><path d="m408 16c22.054688 0 40 17.945312 40 40 0 22.058594-17.945312 40-40 40h-8v56h16v-40.566406c27.105469-3.886719 48-27.265625 48-55.433594 0-30.871094-25.128906-56-56-56s-56 25.128906-56 56h16c0-22.054688 17.945312-40 40-40zm0 0"/><path d="m400 168h16v16h-16zm0 0"/></svg>