<svg height="464pt" viewBox="0 0 464 464" width="464pt" xmlns="http://www.w3.org/2000/svg"><path d="m424 463.28125c22.695312-3.816406 40-23.503906 40-47.28125v-32h-40zm0 0"/><path d="m368 416c0 23.777344 17.304688 43.464844 40 47.28125v-79.28125h-40zm0 0"/><path d="m64 266.105469v21.894531h128v-21.894531c0-7.105469-4.777344-13.433594-11.601562-15.386719l-34.070313-9.734375-18.328125 18.328125-18.328125-18.328125-34.070313 9.734375c-6.824218 1.953125-11.601562 8.28125-11.601562 15.386719zm0 0"/><path d="m224 288v-176h-192v176h16v-21.894531c0-14.21875 9.542969-26.867188 23.207031-30.769531l32.792969-9.367188v-10.167969c-9.65625-7.3125-16-18.785156-16-31.792969v-16c0-22.054687 17.945312-40 40-40s40 17.945313 40 40v16c0 13.015626-6.34375 24.488282-16 31.792969v10.167969l32.792969 9.367188c13.664062 3.894531 23.207031 16.550781 23.207031 30.769531v21.894531zm0 0"/><path d="m120 223.191406v5.496094l8 8 8-8v-5.496094c-2.585938.527344-5.265625.808594-8 .808594s-5.414062-.28125-8-.808594zm0 0"/><path d="m152 184v-16c0-13.230469-10.769531-24-24-24s-24 10.769531-24 24v16c0 13.230469 10.769531 24 24 24s24-10.769531 24-24zm0 0"/><path d="m258.632812 374.503906-12.097656-10.480468c14.65625-16.902344 23.386719-37.976563 25.097656-60.03125h-16.039062c-4.058594 44.792968-41.769531 80.007812-87.59375 80.007812s-83.535156-35.214844-87.59375-80h-16c4.113281 53.609375 48.953125 96 103.59375 96 24.929688 0 49.089844-9.039062 68.023438-25.464844l10.488281 12.089844c-21.855469 18.941406-49.726563 29.375-78.511719 29.375-63.472656 0-115.449219-49.558594-119.59375-112h-48.40625v17.441406l27.433594 5.488282 1.246094 4.871093c3.375 13.175781 8.585937 25.757813 15.488281 37.40625l2.558593 4.328125-15.503906 23.273438 35.976563 35.984375 23.273437-15.511719 4.328125 2.566406c11.640625 6.90625 24.222657 12.113282 37.40625 15.488282l4.871094 1.25 5.480469 27.414062h50.875l5.488281-27.425781 4.871094-1.246094c13.175781-3.375 25.765625-8.585937 37.40625-15.488281l4.328125-2.566406 23.273437 15.511718 35.976563-35.984375-15.503906-23.273437 2.558593-4.328125c6.894531-11.648438 12.113281-24.230469 15.488281-37.40625l1.246094-4.871094 27.433594-5.480469v-17.441406h-48.359375c-1.746094 25.902344-11.832031 50.695312-29.007813 70.503906zm0 0"/><path d="m0 288h16v-192h224v192h168v24.71875c-22.695312 3.816406-40 23.503906-40 47.28125v8h96v-8c0-23.777344-17.304688-43.464844-40-47.28125v-24.71875h40v-224h-464zm424 64h-16v-16h16zm24-120h-128v-16h128zm-160-112h160v16h-160zm-32 0h16v16h-16zm0 32h192v16h-192zm0 32h192v16h-192zm48 32v16h-16v-16zm-48 0h16v16h-16zm0 32h144v16h-144zm0 0"/><path d="m0 0v48h464v-48zm32 32h-16v-16h16zm32 0h-16v-16h16zm32 0h-16v-16h16zm0 0"/></svg>