<svg height="464pt" viewBox="-72 0 464 464" width="464pt" xmlns="http://www.w3.org/2000/svg"><path d="m272 64h-16v112h-32v-132.6875l16-16v20.6875h16v-48h-48v16h20.6875l-69.28125 69.28125-39.636719-31.714844-71.769531 62.800782v75.632812h224zm-64 112h-32v-84.6875l32-32zm-48-69.761719v69.761719h-32v-95.351562zm-96 17.394531 48-42v94.367188h-48zm0 0"/><path d="m160.640625 384c3.902344 27.089844 27.207031 48 55.359375 48 10.742188 0 20.753906-3.097656 29.289062-8.359375l-33.042968-39.640625zm0 0"/><path d="m224 320.640625v52.464844l33.566406 40.285156c8.9375-9.925781 14.433594-23.015625 14.433594-37.390625 0-28.152344-20.902344-51.457031-48-55.359375zm0 0"/><path d="m208 320.640625c-24.472656 3.527344-43.832031 22.886719-47.359375 47.359375h47.359375zm0 0"/><path d="m288 64v144h-256v-144h-32v400h320v-400zm-256 160h120v16h-120zm0 32h160v16h-160zm16 192h-16v-16h16zm32 0h-16v-16h16zm32 0h-16v-16h16zm16-48h-96v-16h96zm0-32h-96v-16h96zm0-32h-96v-16h96zm0-32h-96v-16h96zm88 144c-39.695312 0-72-32.296875-72-72s32.304688-72 72-72 72 32.296875 72 72-32.304688 72-72 72zm-8-176v-16h16v16zm32 0v-16h16v16zm48 0h-16v-16h16zm0-32h-120v-16h120zm0 0"/></svg>