<svg height="464pt" viewBox="0 -40 464 464" width="464pt" xmlns="http://www.w3.org/2000/svg"><path d="m169.753906 296 5.117188-20.472656-14.871094-9.910156-14.871094 9.910156 5.117188 20.472656zm0 0"/><path d="m192 212.6875v-9.40625c-10.152344 3.039062-20.878906 4.71875-32 4.71875s-21.847656-1.679688-32-4.71875v9.40625l32 32zm0 0"/><path d="m18.175781 249.695312c-10.695312 2.679688-18.175781 12.257813-18.175781 23.289063v111.015625h32v-96h16v96h70.414062l-27.710937-152.433594zm0 0"/><path d="m213.753906 227.6875-11.304687-2.824219-29.898438 29.898438 32.351563 21.558593zm0 0"/><path d="m160 192c52.9375 0 96-43.0625 96-96s-43.0625-96-96-96-96 43.0625-96 96 43.0625 96 96 96zm0-176c44.113281 0 80 35.886719 80 80 0 16.070312-4.753906 31.566406-13.726562 44.824219l-13.25-8.96875c7.175781-10.609375 10.976562-23 10.976562-35.855469 0-35.289062-28.710938-64-64-64-12.855469 0-25.246094 3.800781-35.847656 10.976562l-8.96875-13.25c13.25-8.972656 28.746094-13.726562 44.816406-13.726562zm-58.328125 25.351562 11.671875 10.9375c-11.175781 11.933594-17.34375 27.464844-17.34375 43.710938 0 35.289062 28.710938 64 64 64 16.238281 0 31.769531-6.167969 43.710938-17.34375l10.9375 11.671875c-14.921876 13.976563-34.328126 21.671875-54.648438 21.671875-44.113281 0-80-35.886719-80-80 0-20.328125 7.695312-39.734375 21.671875-54.648438zm0 0"/><path d="m106.246094 227.6875 8.851562 48.632812 32.351563-21.558593-29.898438-29.898438zm0 0"/><path d="m440 72h-88v48h88c13.230469 0 24-10.769531 24-24s-10.769531-24-24-24zm8 32h-16v-16h16zm0 0"/><path d="m301.824219 249.695312-72.527344-18.128906-27.710937 152.433594h70.414062v-96h16v96h32v-111.015625c0-11.03125-7.480469-20.609375-18.175781-23.289063zm0 0"/><path d="m320 72h16v48h-16zm0 0"/><path d="m304 112v-32h-32.40625c.191406 5.304688.40625 10.601562.40625 16s-.214844 10.695312-.40625 16zm0 0"/><path d="m150.671875 312-13.085937 72h44.828124l-13.085937-72zm0 0"/><path d="m189.007812 284.953125-4.832031 19.328125 7.824219 43.023438 9.785156-53.832032zm0 0"/><path d="m118.214844 293.472656 9.785156 53.832032 7.824219-43.023438-4.832031-19.328125zm0 0"/></svg>