<svg height="464pt" viewBox="-40 0 464 464" width="464pt" xmlns="http://www.w3.org/2000/svg"><path d="m264 144.71875v-16.167969c-28.894531 3.625-51.816406 26.554688-55.449219 55.449219h16.167969c3.394531-20.054688 19.226562-35.886719 39.28125-39.28125zm0 0"/><path d="m48 160h16v32h-16zm0 0"/><path d="m304 192c0 17.671875-14.328125 32-32 32s-32-14.328125-32-32 14.328125-32 32-32 32 14.328125 32 32zm0 0"/><path d="m264 255.449219v-16.167969c-20.054688-3.386719-35.886719-19.226562-39.28125-39.28125h-16.167969c3.632813 28.894531 26.554688 51.816406 55.449219 55.449219zm0 0"/><path d="m280 239.28125v16.167969c28.894531-3.625 51.816406-26.554688 55.449219-55.449219h-16.167969c-3.394531 20.054688-19.226562 35.886719-39.28125 39.28125zm0 0"/><path d="m0 0h384v16h-384zm0 0"/><path d="m319.28125 184h16.167969c-3.625-28.894531-26.554688-51.816406-55.449219-55.449219v16.167969c20.054688 3.394531 35.886719 19.226562 39.28125 39.28125zm0 0"/><path d="m368 288v-256h-352v256zm-32-240h16v16h-16zm-32 0h16v16h-16zm-32 0h16v16h-16zm-176 8h128v16h-128zm32 48v-16h96v16zm64 16v16h-64v-16zm-96-32h16v16h-16zm0 32h16v16h-16zm0 80h16v56h16v-72h16v58.960938l48.160156-54.183594c1.710938-42.617188 36.816406-76.777344 79.839844-76.777344 44.113281 0 80 35.886719 80 80s-35.886719 80-80 80c-37.726562 0-69.367188-26.289062-77.753906-61.488281l-54.652344 61.488281h-91.59375v-16h16v-32h16v32h16zm-64-152h48v160h-48zm0 0"/><path d="m272 432h-56v-96h-16v32h-16v-32h-16v96h-56c-17.671875 0-32 14.328125-32 32h224c0-17.671875-14.328125-32-32-32zm-88 0v-48h16v48zm0 0"/><path d="m0 304h384.007812v16h-384.007812zm0 0"/><path d="m48 112h16v32h-16zm0 0"/><path d="m48 64h16v32h-16zm0 0"/></svg>