<svg height="464pt" viewBox="-56 0 464 464" width="464pt" xmlns="http://www.w3.org/2000/svg"><path d="m140.609375 342.121094 35.390625-5.058594v-17.308594c-4.960938-6.664062-8-14.832031-8-23.753906v-16c0-22.054688 17.945312-40 40-40s40 17.945312 40 40v16c0 8.929688-3.039062 17.089844-8 23.753906v17.308594l35.390625 5.058594c11.746094 1.679687 20.609375 11.886718 20.609375 23.757812v17.296875c10.078125-16.015625 16-34.894531 16-55.167969 0-57.34375-46.65625-104-104-104s-104 46.65625-104 104c0 20.28125 5.921875 39.160157 16 55.167969v-17.296875c0-11.871094 8.855469-22.078125 20.609375-23.757812zm0 0"/><path d="m232 296v-16c0-13.230469-10.769531-24-24-24s-24 10.769531-24 24v16c0 13.230469 10.769531 24 24 24s24-10.769531 24-24zm0 0"/><path d="m273.136719 357.960938-49.136719-7.023438v-18.328125c-4.910156 2.160156-10.304688 3.390625-16 3.390625s-11.089844-1.230469-16-3.390625v18.328125l-49.128906 7.023438c-3.917969.550781-6.871094 3.960937-6.871094 7.910156v37c18.703125 17.992187 44.054688 29.128906 72 29.128906s53.296875-11.136719 72-29.128906v-37c0-3.949219-2.953125-7.359375-6.863281-7.910156zm0 0"/><path d="m243.71875 96h44.28125v-96h-288v440c0 13.230469 10.769531 24 24 24s24-10.769531 24-24v-32h-32v-16h32v-16h-32v-16h32v-16h-32v-16h32v-16h-32v-16h32v-16h-32v-16h32v-16h-32v-16h32v-16h-32v-16h32v-56h163.71875zm28.28125-32h-16v-16h16zm-224-48h224v16h-224zm-32 0h16v16h-16zm0 32h224v16h-224zm184 80h-184v-16h184zm0-32h-184v-16h184zm0 0"/><path d="m64 440c0 9-2.992188 17.3125-8.015625 24h272.015625c13.230469 0 24-10.769531 24-24v-248h-288zm144-232c66.167969 0 120 53.832031 120 120s-53.832031 120-120 120-120-53.832031-120-120 53.832031-120 120-120zm0 0"/><path d="m252.28125 112-32 48h-156.28125v16h288v-64zm83.71875 32h-80v-16h80zm0 0"/></svg>