<svg height="464pt" viewBox="0 0 464 464" width="464pt" xmlns="http://www.w3.org/2000/svg"><path d="m176 0v48h288v-48zm32 32h-16v-16h16zm32 0h-16v-16h16zm32 0h-16v-16h16zm0 0"/><path d="m176 128h-144v288h284l24-32h60v-80h-216v-128h16v112h264v-224h-288zm128 272h-256v-16h256zm80-32h-336v-16h336zm0-48v16h-336v-16zm-136-176h16v16h-16zm2.175781 45.207031 45.824219-11.453125v-9.753906h.246094c-9.796875-7.296875-16.246094-18.871094-16.246094-32v-16c0-22.054688 17.945312-40 40-40s40 17.945312 40 40v16c0 13.128906-6.449219 24.703125-16.246094 32h.246094v9.753906l45.824219 11.453125c10.695312 2.671875 18.175781 12.25 18.175781 23.289063v59.503906h-176v-59.503906c0-11.039063 7.480469-20.617188 18.175781-23.289063zm-34.175781-45.207031h16v16h-16zm-16 16h-136v128h104v16h-120v-160h152zm0 0"/><path d="m324 432h-324v8c0 13.230469 10.769531 24 24 24h400c13.230469 0 24-10.769531 24-24v-40h-100zm92-16h16v16h-16zm-32 0h16v16h-16zm-32 0h16v16h-16zm0 0"/><path d="m16 112h144v-16h-152c-4.40625 0-8 3.59375-8 8v312h16zm0 0"/><path d="m320 160c13.230469 0 24-10.769531 24-24v-16c0-13.230469-10.769531-24-24-24s-24 10.769531-24 24v16c0 13.230469 10.769531 24 24 24zm0 0"/><path d="m392 212.496094c0-3.679688-2.496094-6.871094-6.0625-7.761719l-57.9375-14.488281v-15.054688c-2.585938.527344-5.265625.808594-8 .808594s-5.414062-.28125-8-.808594v15.054688l-57.9375 14.488281c-3.566406.890625-6.0625 4.082031-6.0625 7.761719v43.503906h144zm0 0"/><path d="m416 304h32v80h-32zm0 0"/></svg>