<svg height="480pt" viewBox="0 -8 480 480" width="480pt" xmlns="http://www.w3.org/2000/svg"><path d="m256 259.3125v108.6875h16v-124.6875zm0 0"/><path d="m128 464h48v-184h-48zm16-160h16v16h-16zm0 32h16v16h-16zm0 32h16v16h-16zm0 32h16v16h-16zm0 32h16v16h-16zm0 0"/><path d="m64 464h48v-184h-48zm16-128h16v16h-16zm0 32h16v16h-16zm0 32h16v16h-16zm0 32h16v16h-16zm0 0"/><path d="m0 464h48v-184h-48zm16-96h16v16h-16zm0 32h16v16h-16zm0 32h16v16h-16zm0 0"/><path d="m192 448h256v16h-256zm0 0"/><path d="m240 376v-100.6875l-4.6875 4.6875h-43.3125v152h16v-32h32zm-16 8h-16v-16h16zm0-32h-16v-16h16zm0-32h-16v-16h16zm0 0"/><path d="m320 48c8.824219 0 16-7.175781 16-16v-16c0-8.824219-7.175781-16-16-16s-16 7.175781-16 16v16c0 8.824219 7.175781 16 16 16zm0 0"/><path d="m400 115.3125v108.6875h-16v-123.929688c0-3.550781-2.382812-6.71875-5.808594-7.695312l-50.191406-14.34375v-15.167969c-2.574219.671875-5.222656 1.136719-8 1.136719s-5.425781-.464844-8-1.136719v15.167969l-50.199219 14.335938c-3.417969.984374-5.800781 4.144531-5.800781 7.703124v123.929688h16v-88h16v232h24v-176h16v176h24v-232h16v232h32v32h16v-300.6875zm0 236.6875h-16v-16h16zm0-32h-16v-16h16zm0-32h-16v-16h16zm0-32h-16v-16h16zm0 0"/><path d="m211.3125 248h-211.3125v16h228.6875l11.3125-11.3125v-33.375zm0 0"/><path d="m224 416h192v16h-192zm0 0"/><path d="m256 384h128v16h-128zm0 0"/><path d="m432 83.3125v348.6875h32v32h16v-396.6875l-16-16zm32 332.6875h-16v-16h16zm0-32h-16v-16h16zm0-32h-16v-16h16zm0-32h-16v-16h16zm0-32h-16v-16h16zm0-32h-16v-16h16zm0-32h-16v-16h16zm0-32h-16v-16h16zm0-32h-16v-16h16zm0-32h-16v-16h16zm0-32h-16v-16h16zm0 0"/><path d="m435.3125 0 16 16-63.359375 63.359375c5.414063 3.144531 9.390625 8.28125 11.085937 14.289063l64.960938-64.960938 16 16v-44.6875zm0 0"/><path d="m128 96c0 8.835938-7.164062 16-16 16s-16-7.164062-16-16 7.164062-16 16-16 16 7.164062 16 16zm0 0"/><path d="m187.367188 122.609375 1.433593-4.050781 19.199219-4.796875v-35.503907l-19.199219-4.800781-1.433593-4.050781c-.953126-2.6875-2.039063-5.308594-3.253907-7.855469l-1.855469-3.878906 10.183594-16.984375-25.113281-25.101562-16.992187 10.183593-3.871094-1.859375c-2.542969-1.214844-5.160156-2.308594-7.839844-3.253906l-4.066406-1.433594-4.804688-19.222656h-35.507812l-4.804688 19.207031-4.058594 1.433594c-2.6875.945313-5.292968 2.03125-7.839843 3.253906l-3.871094 1.859375-17-10.1875-25.113281 25.105469 10.183594 16.984375-1.855469 3.878906c-1.214844 2.542969-2.300781 5.167969-3.253907 7.855469l-1.433593 4.058594-19.199219 4.796875v35.507812l19.199219 4.796875 1.433593 4.050781c.953126 2.6875 2.039063 5.308594 3.253907 7.855469l1.867187 3.878907-10.195312 16.984374 25.113281 25.105469 16.992187-10.1875 3.871094 1.859375c2.542969 1.214844 5.160156 2.308594 7.839844 3.253906l4.066406 1.433594 4.804688 19.214844h35.507812l4.804688-19.207031 4.066406-1.433594c2.6875-.945313 5.296875-2.03125 7.839844-3.253906l3.871094-1.859375 16.992187 10.1875 25.113281-25.105469-10.195312-16.984375 1.867187-3.878906c1.214844-2.554688 2.300781-5.167969 3.253907-7.855469zm-75.367188 37.390625c-35.289062 0-64-28.710938-64-64 0-13.871094 4.425781-27.113281 12.792969-38.289062l12.816406 9.59375c-6.289063 8.382812-9.609375 18.3125-9.609375 28.695312 0 26.472656 21.527344 48 48 48 10.390625 0 20.3125-3.320312 28.695312-9.601562l9.59375 12.808593c-11.167968 8.367188-24.417968 12.792969-38.289062 12.792969zm-32-64c0-17.648438 14.351562-32 32-32s32 14.351562 32 32-14.351562 32-32 32-32-14.351562-32-32zm83.207031 38.289062-12.808593-9.59375c6.28125-8.382812 9.601562-18.3125 9.601562-28.695312 0-26.472656-21.527344-48-48-48-10.390625 0-20.3125 3.320312-28.695312 9.601562l-9.59375-12.808593c11.167968-8.367188 24.417968-12.792969 38.289062-12.792969 35.289062 0 64 28.710938 64 64 0 13.871094-4.425781 27.113281-12.792969 38.289062zm0 0"/></svg>