<svg height="464pt" viewBox="0 0 464 464" width="464pt" xmlns="http://www.w3.org/2000/svg"><path d="m320 136v-16c0-13.230469-10.769531-24-24-24s-24 10.769531-24 24v16c0 13.230469 10.769531 24 24 24s24-10.769531 24-24zm0 0"/><path d="m361.9375 204.726562-47.488281-11.871093-18.449219 18.457031-18.457031-18.457031-47.488281 11.871093c-3.558594.898438-6.054688 4.089844-6.054688 7.769532v30.382812c18.703125 17.984375 44.054688 29.121094 72 29.121094s53.296875-11.136719 72-29.128906v-30.382813c0-3.671875-2.496094-6.863281-6.0625-7.761719zm0 0"/><path d="m251.335938 321.488281c-11.246094-3.265625-22.070313-7.753906-32.304688-13.367187l-25.878906 17.253906-54.527344-54.527344 17.253906-25.878906c-5.621094-10.226562-10.101562-21.046875-13.367187-32.304688l-30.511719-6.105468v-77.117188l30.511719-6.105468c3.265625-11.246094 7.753906-22.070313 13.367187-32.304688l-7.359375-11.03125h-148.519531v384h288v-112h-30.558594zm-139.335938-225.488281h16v16h-16zm-96 0h80v16h-80zm0 32h80v16h-80zm0 48h80v16h-80zm0 32h80v16h-80zm0 32h80v16h-80zm0 32h80v16h-80zm0 32h80v16h-80zm16 144h-16v-16h16zm32 0h-16v-16h16zm32 0h-16v-16h16zm32-32h-112v-16h112zm0-32h-112v-16h112zm0-64h-16v-16h16zm0-32h-16v-16h16zm0-32h-16v-16h16zm32 192h-16v-16h16zm32 0h-16v-16h16zm32 0h-16v-16h16zm32-32h-112v-16h112zm0-32h-112v-16h112zm0 0"/><path d="m288 175.191406v5.496094l8 8 8-8v-5.496094c-2.585938.527344-5.265625.808594-8 .808594s-5.414062-.28125-8-.808594zm0 0"/><path d="m296 64c-57.34375 0-104 46.65625-104 104 0 20.28125 5.921875 39.160156 16 55.175781v-10.679687c0-11.03125 7.480469-20.609375 18.175781-23.289063l45.824219-11.453125v-9.960937c-9.65625-7.3125-16-18.785157-16-31.792969v-16c0-22.054688 17.945312-40 40-40s40 17.945312 40 40v16c0 13.015625-6.34375 24.488281-16 31.792969v9.960937l45.824219 11.453125c10.695312 2.671875 18.175781 12.25 18.175781 23.289063v10.679687c10.078125-16.015625 16-34.894531 16-55.175781 0-57.34375-46.65625-104-104-104zm0 0"/><path d="m436.574219 137.070312-1.246094-4.871093c-3.375-13.175781-8.59375-25.765625-15.488281-37.40625l-2.566406-4.328125 15.511718-23.273438-35.984375-35.984375-23.273437 15.511719-4.328125-2.566406c-11.648438-6.894532-24.230469-12.113282-37.40625-15.488282l-4.871094-1.25-5.480469-27.414062h-50.882812l-5.488282 27.425781-4.871093 1.246094c-13.175781 3.375-25.765625 8.59375-37.40625 15.488281l-4.328125 2.566406-23.273438-15.511718-35.984375 35.984375 15.511719 23.273437-2.566406 4.328125c-6.894532 11.648438-12.113282 24.230469-15.488282 37.40625l-1.25 4.871094-27.414062 5.480469v50.882812l27.425781 5.488282 1.246094 4.871093c3.375 13.175781 8.59375 25.765625 15.488281 37.40625l2.566406 4.328125-15.511718 23.273438 35.984375 35.984375 23.273437-15.511719 4.328125 2.566406c11.648438 6.894532 24.230469 12.113282 37.40625 15.488282l4.871094 1.25 5.480469 27.414062h50.882812l5.488282-27.425781 4.871093-1.246094c13.175781-3.375 25.765625-8.59375 37.40625-15.488281l4.328125-2.566406 23.273438 15.511718 35.984375-35.984375-15.511719-23.273437 2.566406-4.328125c6.894532-11.648438 12.113282-24.230469 15.488282-37.40625l1.25-4.871094 27.414062-5.480469v-50.882812zm-276.574219 38.929688h-16v-16h16zm237.824219-121.136719 11.3125 11.3125-11.3125 11.3125-11.3125-11.3125zm-109.824219-38.863281h16v16h-16zm-93.824219 38.863281 11.3125 11.3125-11.3125 11.3125-11.3125-11.3125zm0 226.273438-11.3125-11.3125 11.3125-11.3125 11.3125 11.3125zm109.824219 38.863281h-16v-16h16zm93.824219-38.863281-11.3125-11.3125 11.3125-11.3125 11.3125 11.3125zm-101.824219 6.863281c-66.167969 0-120-53.832031-120-120s53.832031-120 120-120 120 53.832031 120 120-53.832031 120-120 120zm152-112h-16v-16h16zm0 0"/></svg>