<svg height="464pt" viewBox="-40 0 464 464" width="464pt" xmlns="http://www.w3.org/2000/svg"><path d="m138.222656 314.910156 9.351563 49.089844 31.875-21.238281-30.082031-30.082031zm0 0"/><path d="m304 48h-48v-48h-176v272h224zm-208-32h144v144h-144zm192 240h-192v-16h192zm0-32h-192v-16h192zm0-32h-192v-16h192zm0 0"/><path d="m224 300.6875v-12.6875h-64v12.6875l32 32zm0 0"/><path d="m201.753906 384 5.117188-20.472656-14.871094-9.910156-14.871094 9.910156 5.117188 20.472656zm0 0"/><path d="m168 112c-19.3125 0-35.472656 13.769531-39.191406 32h78.382812c-3.71875-18.230469-19.878906-32-39.191406-32zm0 0"/><path d="m184 80c0 8.835938-7.164062 16-16 16s-16-7.164062-16-16 7.164062-16 16-16 16 7.164062 16 16zm0 0"/><path d="m112 144h.640625c2.726563-18.945312 14.933594-34.816406 31.679687-42.671875-5.121093-5.671875-8.320312-13.105469-8.320312-21.328125 0-17.648438 14.351562-32 32-32s32 14.351562 32 32c0 8.222656-3.199219 15.65625-8.320312 21.328125 16.746093 7.855469 28.953124 23.726563 31.679687 42.671875h.640625v-112h-112zm0 0"/><path d="m272 0v32h32zm0 0"/><path d="m216.199219 392.199219 7.609375 38.046875 9.367187-49.183594-12.167969-8.109375zm0 0"/><path d="m254.214844 387.945312 18.921875-9.449218 13.832031-55.34375-25.496094-5.105469-27.800781 145.953125h9.054687l20.722657-48.359375zm0 0"/><path d="m182.558594 400-12.796875 64h44.476562l-12.796875-64zm0 0"/><path d="m351.839844 336.128906-49.175782-9.832031-15.800781 63.214844-13.085937 6.542969 6.773437 20.304687-20.421875 47.640625h59.871094v-88h16v88h48v-88.648438c0-19-13.519531-35.496093-32.160156-39.222656zm0 0"/><path d="m110.214844 396.054688-13.085938-6.542969-15.800781-63.214844-49.175781 9.832031c-18.632813 3.726563-32.152344 20.222656-32.152344 39.222656v88.648438h48v-88h16v88h59.871094l-20.421875-47.640625zm0 0"/><path d="m245.777344 314.910156-11.144532-2.230468-30.082031 30.082031 31.875 21.238281zm0 0"/><path d="m97.03125 323.152344 13.832031 55.34375 18.921875 9.449218-9.234375 27.695313 20.722657 48.359375h9.054687l-27.800781-145.953125zm0 0"/><path d="m150.824219 381.0625 9.367187 49.183594 7.609375-38.046875-4.808593-19.246094zm0 0"/></svg>