<svg height="464pt" viewBox="0 0 464 464" width="464pt" xmlns="http://www.w3.org/2000/svg"><path d="m288 408h144v16h-144zm0 0"/><path d="m142.320312 335.265625 20.0625 12.039063 5.074219-25.375-5.632812-1.296876zm0 0"/><path d="m176 195.3125-8.351562-8.351562c-10.914063 8.464843-24.242188 13.039062-38.273438 13.039062h-49.375v40c0 26.472656 21.527344 48 48 48s48-21.527344 48-48zm0 0"/><path d="m48.113281 221.617188c-.65625 6.878906 1.519531 13.453124 6.125 18.519531 2.769531 3.039062 6.289063 5.167969 10.105469 6.464843-.222656-2.167968-.34375-4.371093-.34375-6.601562v-38.28125c-8.609375 3.265625-15.023438 10.839844-15.886719 19.898438zm0 0"/><path d="m129.367188 184c12.457031 0 24.167968-4.847656 32.976562-13.65625l5.65625-5.65625 19.609375 19.609375c7.589844.902344 14.566406 3.902344 20.390625 8.296875v-47.296875c0-11.679687-7.449219-22.007813-18.527344-25.703125l-1.351562-.457031-18.402344-14.722657c-13.238281-10.582031-29.863281-16.414062-46.808594-16.414062-41.300781 0-74.910156 33.609375-74.910156 74.910156v29.769532c7.078125-5.359376 15.871094-8.679688 25.375-8.679688zm0 0"/><path d="m192 240c0 2.230469-.121094 4.433594-.34375 6.609375 3.816406-1.296875 7.335938-3.425781 10.105469-6.464844 4.605469-5.066406 6.773437-11.648437 6.117187-18.527343-.863281-9.050782-7.269531-16.632813-15.878906-19.890626zm0 0"/><path d="m93.960938 347.097656 19.71875-11.832031-19.503907-14.632813-4.457031 1.023438zm0 0"/><path d="m224.992188 335.207031-41.945313-9.679687-9.429687 47.167968-37.617188-22.566406v113.871094h64v-88h16v88h40v-89.816406c0-18.734375-12.753906-34.757813-31.007812-38.976563zm-56.992188 96.792969h-16v-16h16zm0-32h-16v-16h16zm0 0"/><path d="m74.105469 325.265625-43.097657 9.941406c-18.253906 4.21875-31.007812 20.242188-31.007812 38.976563v89.816406h40v-88h16v88h64v-113.871094l-37.960938 22.773438zm0 0"/><path d="m152 299.289062c-7.414062 3.015626-15.511719 4.710938-24 4.710938s-16.585938-1.695312-24-4.710938v8.710938l24 18 24-18zm0 0"/><path d="m448 408h16v16h-16zm0 0"/><path d="m288 376h176v16h-176zm0 0"/><path d="m288 344h144v16h-144zm0 0"/><path d="m448 344h16v16h-16zm0 0"/><path d="m304 184c-4.40625 0-8 3.59375-8 8s3.59375 8 8 8h8v-8c0-4.40625-3.59375-8-8-8zm0 0"/><path d="m336 328c11.792969 0 22-6.480469 27.550781-16h-55.09375c5.542969 9.519531 15.75 16 27.542969 16zm0 0"/><path d="m328 216h16v48h-16zm0 0"/><path d="m304 280h64v16h-64zm0 0"/><path d="m376 192c0-4.40625-3.59375-8-8-8s-8 3.59375-8 8v8h8c4.40625 0 8-3.59375 8-8zm0 0"/><path d="m303.886719 264h8.113281v-48h-8c-13.230469 0-24-10.769531-24-24s10.769531-24 24-24 24 10.769531 24 24v8h16v-8c0-13.230469 10.769531-24 24-24s24 10.769531 24 24-10.769531 24-24 24h-8v48h8.113281c.292969-8.191406 4.679688-15.734375 11.742188-19.800781 27.234375-15.6875 44.144531-44.886719 44.144531-76.199219 0-24.175781-9.609375-46.71875-27.046875-63.472656-16.554687-15.894532-38.066406-24.527344-60.929687-24.527344-1.222657 0-2.449219.023438-3.671876.070312-45.679687 1.851563-83.511718 40.570313-84.335937 86.320313-.574219 32.015625 16.359375 61.847656 44.199219 77.855469 7.023437 4.042968 11.378906 11.5625 11.671875 19.753906zm68.121093-158.359375c22.199219 12.839844 35.992188 36.734375 35.992188 62.359375h-16c0-19.929688-10.726562-38.519531-28.007812-48.511719zm-36.007812-9.640625c6.097656 0 12.152344.761719 18 2.273438l-4 15.488281c-4.535156-1.167969-9.246094-1.761719-14-1.761719zm0 0"/><path d="m328 0h16v48h-16zm0 0"/><path d="m211.546875 54.867188 11.3125-11.316407 33.941406 33.941407-11.3125 11.3125zm0 0"/><path d="m415.191406 77.492188 33.941406-33.941407 11.3125 11.3125-33.941406 33.941407zm0 0"/></svg>