<svg height="472pt" viewBox="0 -3 472 471" width="472pt" xmlns="http://www.w3.org/2000/svg"><path d="m224 29.1875 5.65625 5.65625c8.808594 8.808594 20.519531 13.65625 32.976562 13.65625h25.367188v-6.113281c0-7.984375-4.441406-15.167969-11.574219-18.734375l-1.160156-.578125-10.007813-10.007813c-8.105468-8.101562-18.890624-12.566406-30.347656-12.566406-23.664062 0-42.910156 19.246094-42.910156 42.910156v4.570313c9.9375-1.410157 19.121094-5.921875 26.34375-13.136719zm0 0"/><path d="m72 384.5h336v16h-336zm0 0"/><path d="m332.289062 171.589844-55.640624-10.105469c-4.71875 8.679687-15.664063 23.015625-36.648438 23.015625s-31.929688-14.335938-36.65625-23.023438l-55.640625 10.101563c-11.414063 2.089844-19.703125 12.027344-19.703125 23.625v29.296875h224v-29.296875c0-11.597656-8.289062-21.535156-19.710938-23.613281zm0 0"/><path d="m72 416.5h336v16h-336zm0 0"/><path d="m72 352.5h336v16h-336zm0 0"/><path d="m68.527344 240.5-38.398438 64h419.742188l-38.398438-64zm0 0"/><path d="m24 320.5h432v16h-432zm0 0"/><path d="m264 151.011719v-8.304688c-3.753906 1.144531-7.703125 1.792969-11.777344 1.792969h-24.445312c-4.074219 0-8.023438-.648438-11.777344-1.792969v8.304688c1.671875 3.984375 8.503906 17.488281 24 17.488281s22.328125-13.503906 24-17.488281zm0 0"/><path d="m440 352.5h-16v96h-32v16h80v-16h-32zm0 0"/><path d="m56 352.5h-16v96h-40v16h80v-16h-24zm0 0"/><path d="m206.3125 115.234375c4.085938 8.175781 12.320312 13.265625 21.464844 13.265625h24.445312c9.152344 0 17.378906-5.089844 21.464844-13.265625l11.777344-23.550781c1.664062-3.320313 2.535156-7.03125 2.535156-10.734375v-16.449219h-25.367188c-14.183593 0-27.648437-4.6875-38.632812-13.320312-9.238281 7.265624-20.289062 11.535156-32 12.769531v16.992187c0 3.703125.871094 7.421875 2.535156 10.734375zm0 0"/><path d="m120 113.578125v-33.078125h32v-80h-144v80h72.304688zm-16-81.078125h16v16h-16zm-48 16h-16v-16h16zm16-16h16v16h-16zm0 0"/><path d="m312 .5v112h48v33.078125l39.695312-33.078125h72.304688v-112zm128 80h-96v-16h96zm0-32h-96v-16h96zm0 0"/><path d="m112 176.5h-24v-24h-16v24h-16v-48h-16v48h-16v-72h-16v88h104zm0 0"/><path d="m432 160.5h12.6875l-20.6875 20.6875-16-16-37.65625 37.65625 11.3125 11.3125 26.34375-26.34375 16 16 32-32v12.6875h16v-40h-40zm0 0"/></svg>