<svg height="477pt" viewBox="0 -74 477.056 477" width="477pt" xmlns="http://www.w3.org/2000/svg"><path d="m238.527344 16.027344c140.90625 0 224.648437 115.464844 225.480468 116.632812l13.046876-9.257812c-3.566407-5.039063-89.175782-123.3750002-238.527344-123.3750002-149.351563 0-234.960938 118.3359372-238.527344 123.3750002l13.046875 9.257812c.832031-1.167968 84.578125-116.632812 225.480469-116.632812zm0 0"/><path d="m230.527344 80.4375c-50.960938 3.902344-91.6875 44.628906-95.589844 95.589844h95.589844zm-16 79.589844h-40v-16h40zm0-32h-40v-16h40zm0 0"/><path d="m134.9375 192.027344c4.109375 53.609375 48.941406 96 103.589844 96 25.800781 0 49.382812-9.496094 67.578125-25.113282l-70.890625-70.886718zm31.589844 40v-16h64v16zm40 32h-16v-16h16zm64 0h-48v-16h48zm0 0"/><path d="m143.503906 65.578125c-35.03125 14.425781-66.40625 37.355469-91.207031 67.457031l-35.632813 43.265625 35.960938 48.808594c21.640625 29.367187 49.75 52.855469 81.542969 69.144531-29.265625-27.730468-47.640625-66.832031-47.640625-110.226562 0-47.863282 22.289062-90.566406 56.976562-118.449219zm0 0"/><path d="m238.527344 48.027344c-74.992188 0-136 61.007812-136 136 0 74.039062 59.496094 134.328125 133.175781 135.855468 1.183594.023438 2.367187.105469 3.554687.105469 74.652344-.390625 135.269532-61.214843 135.269532-135.960937 0-74.992188-61.007813-136-136-136zm0 256c-66.167969 0-120-53.832032-120-120 0-66.167969 53.832031-120 120-120 66.167968 0 120 53.832031 120 120 0 66.167968-53.832032 120-120 120zm0 0"/><path d="m424.679688 229.933594 35.710937-45.90625-35.710937-45.910156c-23.488282-30.191407-53.296876-53.519532-86.839844-68.898438 32.199218 27.898438 52.6875 68.96875 52.6875 114.808594s-20.488282 86.914062-52.6875 114.808594c33.542968-15.375 63.351562-38.703126 86.839844-68.902344zm0 0"/><path d="m246.527344 80.4375v100.277344l70.886718 70.890625c15.617188-18.195313 25.113282-41.777344 25.113282-67.578125 0-54.648438-42.390625-99.488282-96-103.589844zm40 111.589844h-16v-16h16zm16 0v-16h16v16zm0 0"/><path d="m6.527344 248.027344h16v16h-16zm0 0"/><path d="m6.527344 280.027344h16v16h-16zm0 0"/><path d="m6.527344 312.027344h16v16h-16zm0 0"/><path d="m38.527344 280.027344h16v16h-16zm0 0"/><path d="m38.527344 312.027344h16v16h-16zm0 0"/><path d="m70.527344 312.027344h16v16h-16zm0 0"/><path d="m374.527344 312.027344h96v16h-96zm0 0"/><path d="m422.527344 280.027344h48v16h-48zm0 0"/></svg>